<svg width="439" height="438" viewBox="0 0 439 438" fill="none" xmlns="http://www.w3.org/2000/svg">
<path fill-rule="evenodd" clip-rule="evenodd" d="M208.912 3.00505C253.718 5.04779 301.376 4.92493 336.851 32.4346C371.871 59.5911 379.611 106.777 395.933 148.032C413.612 192.717 449.704 236.831 435.938 282.879C422.14 329.034 368.376 347.026 328.43 373.829C290.298 399.415 254.421 429.318 208.912 435.21C159.161 441.652 104.409 438.626 64.6366 407.983C25.2318 377.624 11.1877 325.217 2.48679 276.169C-5.28778 232.343 6.60862 189.806 18.3153 146.867C30.6766 101.528 34.7679 48.6446 72.2271 20.3704C109.835 -8.01586 161.882 0.860966 208.912 3.00505Z" fill="#F5F5FF"/>
</svg>
