<svg width="33" height="32" viewBox="0 0 33 32" fill="none" xmlns="http://www.w3.org/2000/svg">
<rect x="0.333374" width="32" height="32" rx="16" fill="#FF4D4F"/>
<path d="M18.0834 6C14.1053 8.4558 14.5834 15.375 14.5834 15.375C14.5834 15.375 12.8334 14.75 12.8334 11.9375C10.7455 13.2346 9.33337 15.7278 9.33337 18.5C9.33337 22.6421 12.4674 26 16.3334 26C20.1994 26 23.3334 22.6421 23.3334 18.5C23.3333 12.4063 18.0834 11.1562 18.0834 6ZM16.9482 23.4157C15.5416 23.7915 14.117 22.8744 13.7662 21.3672C13.4155 19.8601 14.2715 18.3336 15.6782 17.9578C19.0742 17.0506 19.4998 15.0045 19.4998 15.0045C19.4998 15.0045 21.1933 22.2817 16.9482 23.4157Z" fill="white"/>
</svg>
