<svg width="72" height="72" viewBox="0 0 72 72" fill="none" xmlns="http://www.w3.org/2000/svg">
<rect width="72" height="72" rx="36" fill="#F5F5FF"/>
<path d="M42.1644 27C42.6947 27 43.1332 27.1838 43.4799 27.5514C43.8266 27.9189 44 28.3946 44 28.9784V42.6973C44 43.2595 43.8266 43.7351 43.4799 44.1243C43.1332 44.4919 42.6947 44.6757 42.1644 44.6757C41.6342 44.6757 41.1957 44.4919 40.8489 44.1243C40.5226 43.7568 40.3493 43.2919 40.3289 42.7297C39.819 43.3568 39.1256 43.8973 38.2486 44.3514C37.392 44.7838 36.4844 45 35.5258 45C34.1185 45 32.8438 44.6216 31.7017 43.8649C30.5596 43.0865 29.652 42.0162 28.979 40.6541C28.3263 39.2919 28 37.7459 28 36.0162C28 34.2865 28.3263 32.7405 28.979 31.3784C29.6316 29.9946 30.5188 28.9243 31.6405 28.1676C32.7827 27.3892 34.037 27 35.4034 27C36.3824 27 37.3002 27.1946 38.1568 27.5838C39.0134 27.9514 39.7374 28.427 40.3289 29.0108V28.9784C40.3289 28.4162 40.5022 27.9514 40.8489 27.5838C41.1957 27.1946 41.6342 27 42.1644 27ZM35.9847 41.4324C37.3104 41.4324 38.3913 40.9243 39.2275 39.9081C40.0637 38.8703 40.4818 37.573 40.4818 36.0162C40.4818 34.4595 40.0637 33.1622 39.2275 32.1243C38.3913 31.0865 37.3104 30.5676 35.9847 30.5676C34.6794 30.5676 33.6087 31.0865 32.7725 32.1243C31.9363 33.1622 31.5182 34.4595 31.5182 36.0162C31.5182 37.573 31.9261 38.8703 32.7419 39.9081C33.5781 40.9243 34.659 41.4324 35.9847 41.4324Z" fill="#5243C2"/>
</svg>
