<svg width="33" height="32" viewBox="0 0 33 32" fill="none" xmlns="http://www.w3.org/2000/svg">
<rect x="0.666626" width="32" height="32" rx="16" fill="#F58F56"/>
<g clip-path="url(#clip0_3516_3117)">
<path d="M24.108 9.52546C23.6988 9.04801 23.1531 8.77515 22.5392 8.84339H10.7391C9.51134 8.84339 8.4882 10.0029 8.69283 11.2307L10.3298 21.462C10.4663 22.4852 11.353 23.1672 12.3761 23.1672H20.9704C21.9935 23.1672 22.8803 22.4169 23.0167 21.462L24.6537 11.2307C24.7219 10.6168 24.5173 10.0029 24.108 9.52546ZM18.1056 17.7105C17.901 17.5059 17.6964 17.3695 17.4236 17.3013L17.9693 14.5729L16.6051 14.3001L15.9912 17.2331C15.7184 17.3013 15.4455 17.5059 15.1727 17.7105L11.7622 14.3683C14.4224 11.7082 18.7195 11.7082 21.3797 14.3683L18.1056 17.7105Z" fill="white"/>
</g>
<defs>
<clipPath id="clip0_3516_3117">
<rect width="16" height="16" fill="white" transform="translate(8.66663 8)"/>
</clipPath>
</defs>
</svg>
